<?xml version="1.0" encoding="utf-8"?>
<!-- Generator: Adobe Illustrator 22.1.0, SVG Export Plug-In . SVG Version: 6.00 Build 0)  -->
<svg version="1.1" xmlns="http://www.w3.org/2000/svg" xmlns:xlink="http://www.w3.org/1999/xlink" x="0px" y="0px"
	 viewBox="0 0 200 200" style="enable-background:new 0 0 200 200;" xml:space="preserve">
<style type="text/css">
	.st0{display:none;}
	.st1{display:inline;}
	.st2{fill:#D4DEE4;}
	.st3{display:inline;fill:#1E537D;}
	.st4{display:inline;fill:none;}
	.st5{display:inline;fill:#FFFFFF;}
	.st6{font-family:'Signika-Bold';}
	.st7{font-size:48px;}
	.st8{fill:#55595A;}
	.st9{fill:#FFFFFF;}
	.st10{fill:#1E537D;}
	.st11{fill:none;stroke:#D4DEE4;stroke-width:2;stroke-miterlimit:10;}
	.st12{fill:none;stroke:#D4DEE4;stroke-width:2;stroke-linecap:round;stroke-linejoin:round;}
	.st13{display:inline;fill:#D4DEE4;}
	.st14{display:inline;fill:#1E537D;stroke:#FFFFFF;stroke-width:3;stroke-miterlimit:10;}
	.st15{fill:none;stroke:#FFFFFF;stroke-miterlimit:10;}
	.st16{fill:#1E537D;stroke:#FFFFFF;stroke-width:3;stroke-miterlimit:10;}
</style>
<g id="Ebene_1" class="st0">
	<g class="st1">
		<path class="st2" d="M118.4,7.4c5.7-2.4,11.9-3.6,18.6-3.6c6.7,0,12.9,1.2,18.6,3.6c5.7,2.4,10.2,5.7,13.5,9.8
			c3.3,4.1,4.9,8.6,4.9,13.5s-1.6,9.4-4.9,13.5c-3.3,4.1-7.8,7.4-13.5,9.8c-5.7,2.4-11.9,3.6-18.6,3.6c-3,0-6.1-0.3-9.2-0.8
			c-4.3,3.1-9.2,5.3-14.6,6.7c-1.3,0.3-2.8,0.6-4.5,0.8h-0.2c-0.4,0-0.7-0.1-1.1-0.4c-0.3-0.3-0.5-0.6-0.6-1.1
			c0-0.1-0.1-0.2-0.1-0.3s0-0.2,0-0.3c0-0.1,0.1-0.2,0.1-0.3c0.1-0.1,0.1-0.2,0.1-0.3c0-0.1,0.1-0.2,0.2-0.3
			c0.1-0.1,0.2-0.2,0.2-0.3c0.1-0.1,0.1-0.1,0.2-0.3c0.1-0.1,0.2-0.2,0.2-0.2c0.2-0.2,0.6-0.6,1.2-1.3c0.6-0.7,1.1-1.2,1.4-1.5
			c0.3-0.4,0.7-0.9,1.2-1.5c0.5-0.6,0.9-1.3,1.3-2c0.4-0.7,0.7-1.5,1.1-2.3c-4.3-2.5-7.8-5.6-10.2-9.3c-2.5-3.7-3.7-7.6-3.7-11.8
			c0-4.9,1.6-9.4,4.9-13.5C108.2,13.1,112.7,9.8,118.4,7.4z M152,13.3c-4.7-1.8-9.7-2.7-15-2.7c-5.4,0-10.4,0.9-15,2.7
			c-4.7,1.8-8.4,4.3-11.1,7.4c-2.7,3.1-4.1,6.5-4.1,10c0,2.9,0.9,5.6,2.8,8.3c1.9,2.7,4.5,5,7.8,6.9l5.1,2.9l-1.8,4.4
			c1.2-0.7,2.3-1.4,3.3-2l2.3-1.6l2.8,0.5c2.7,0.5,5.4,0.7,8,0.7c5.4,0,10.4-0.9,15-2.7c4.7-1.8,8.4-4.3,11.1-7.4
			c2.7-3.1,4.1-6.5,4.1-10c0-3.6-1.4-6.9-4.1-10C160.3,17.6,156.6,15.1,152,13.3z M180.1,65.2c0.4,0.8,0.7,1.6,1.1,2.3
			s0.8,1.4,1.3,2s0.9,1.2,1.2,1.5c0.3,0.4,0.7,0.9,1.4,1.5c0.6,0.7,1,1.1,1.2,1.3c0,0,0.1,0.1,0.2,0.2c0.1,0.1,0.2,0.2,0.2,0.3
			c0.1,0.1,0.1,0.1,0.2,0.3c0.1,0.1,0.1,0.2,0.2,0.3c0,0.1,0.1,0.2,0.1,0.3c0.1,0.1,0.1,0.2,0.1,0.3c0,0.1,0,0.2,0,0.3
			s0,0.2-0.1,0.3c-0.1,0.5-0.3,0.9-0.7,1.2c-0.4,0.3-0.7,0.4-1.2,0.4c-1.8-0.2-3.3-0.5-4.5-0.8c-5.4-1.4-10.3-3.6-14.6-6.7
			c-3.2,0.6-6.2,0.8-9.2,0.8c-9.5,0-17.7-2.3-24.8-6.9c2,0.1,3.6,0.2,4.6,0.2c5.6,0,11-0.8,16.2-2.4c5.2-1.6,9.8-3.8,13.9-6.8
			c4.4-3.2,7.7-6.9,10.1-11.1c2.3-4.2,3.5-8.6,3.5-13.3c0-2.7-0.4-5.4-1.2-8c4.5,2.5,8.1,5.6,10.7,9.3c2.6,3.7,3.9,7.8,3.9,12.1
			c0,4.2-1.2,8.1-3.7,11.8C187.9,59.6,184.5,62.7,180.1,65.2z"/>
	</g>
	<circle class="st3" cx="100" cy="110.8" r="45"/>
	<rect x="86.3" y="88.5" class="st4" width="27.5" height="38.5"/>
	<text transform="matrix(1 0 0 1 86.25 123.8276)" class="st5 st6 st7">2</text>
	<g class="st1">
		<g id="XMLID_1_">
			<g>
				<path class="st8" d="M150.2,154.6c0.4,0.4,0.7,1,0.7,1.6c0,0.6-0.2,1.1-0.7,1.6c-0.4,0.4-1,0.7-1.6,0.7c-0.6,0-1.2-0.2-1.6-0.7
					l-6-6c-2.1,1.4-4.4,2.2-7,2.2c-1.7,0-3.2-0.3-4.8-1c-1.5-0.6-2.8-1.5-3.9-2.6c-1.1-1.1-2-2.4-2.6-3.9c-0.7-1.5-1-3.1-1-4.8
					c0-1.7,0.3-3.3,1-4.8c0.6-1.5,1.5-2.8,2.6-3.9c1.1-1.1,2.4-2,3.9-2.6c1.5-0.6,3.1-1,4.8-1c1.7,0,3.3,0.3,4.8,1
					c1.5,0.7,2.8,1.5,3.9,2.6c1.1,1.1,2,2.4,2.6,3.9c0.6,1.5,1,3.1,1,4.8c0,2.6-0.7,4.9-2.2,7L150.2,154.6z M141.9,141.7
					c0-2.2-0.8-4-2.3-5.5c-1.5-1.5-3.4-2.3-5.5-2.3s-4,0.8-5.5,2.3c-1.5,1.5-2.3,3.4-2.3,5.5c0,2.1,0.8,4,2.3,5.5
					c1.5,1.5,3.4,2.3,5.5,2.3s4-0.8,5.5-2.3C141.2,145.7,141.9,143.8,141.9,141.7z"/>
				<path class="st9" d="M139.6,136.2c1.5,1.5,2.3,3.4,2.3,5.5c0,2.1-0.8,4-2.3,5.5c-1.5,1.5-3.4,2.3-5.5,2.3s-4-0.8-5.5-2.3
					c-1.5-1.5-2.3-3.4-2.3-5.5c0-2.2,0.8-4,2.3-5.5c1.5-1.5,3.4-2.3,5.5-2.3S138.1,134.6,139.6,136.2z"/>
			</g>
		</g>
	</g>
</g>
<g id="Ebene_1_Kopie" class="st0">
	<g class="st1">
		<path class="st2" d="M182.6,27.6c0,0.9-0.3,1.7-0.9,2.3l-24.5,24.5l-4.6,4.6c-0.6,0.6-1.4,0.9-2.3,0.9c-0.9,0-1.7-0.3-2.3-0.9
			l-4.6-4.6l-12.3-12.3c-0.6-0.6-0.9-1.4-0.9-2.3c0-0.9,0.3-1.7,0.9-2.3l4.6-4.6c0.6-0.6,1.4-0.9,2.3-0.9c0.9,0,1.7,0.3,2.3,0.9
			l10,10l22.2-22.2c0.6-0.6,1.4-0.9,2.3-0.9c0.9,0,1.7,0.3,2.3,0.9l4.6,4.6C182.3,25.9,182.6,26.7,182.6,27.6z"/>
	</g>
	<g class="st1">
		<path class="st10" d="M131.6,63.7c4.7,5.9,7.1,12.4,7.1,19.4c0,7-2.4,13.5-7.1,19.4c-4.7,5.9-11.2,10.6-19.4,14.1
			c-8.2,3.4-17.1,5.2-26.7,5.2c-4.3,0-8.8-0.4-13.3-1.2c-6.2,4.4-13.2,7.6-21,9.7c-1.8,0.5-4,0.9-6.5,1.2h-0.2
			c-0.6,0-1.1-0.2-1.5-0.6c-0.5-0.4-0.8-0.9-0.9-1.6c-0.1-0.1-0.1-0.3-0.1-0.5c0-0.2,0-0.3,0-0.5c0-0.1,0.1-0.3,0.2-0.5
			c0.1-0.2,0.1-0.3,0.2-0.4c0-0.1,0.1-0.2,0.3-0.4c0.1-0.2,0.2-0.3,0.3-0.4c0.1-0.1,0.2-0.2,0.3-0.4c0.2-0.2,0.3-0.3,0.3-0.3
			c0.3-0.3,0.8-0.9,1.7-1.9c0.9-1,1.6-1.7,2-2.2c0.4-0.5,1-1.3,1.7-2.2c0.7-0.9,1.4-1.9,1.9-2.9c0.5-1,1-2.1,1.5-3.3
			c-6.2-3.6-11.1-8.1-14.7-13.4c-3.6-5.3-5.4-10.9-5.4-16.9c0-7,2.4-13.5,7.1-19.4c4.7-5.9,11.2-10.6,19.4-14.1s17.1-5.2,26.7-5.2
			s18.5,1.7,26.7,5.2S126.8,57.8,131.6,63.7z M167.6,102.4c0,6-1.8,11.7-5.4,16.9c-3.6,5.3-8.5,9.7-14.7,13.3c0.5,1.2,1,2.3,1.5,3.3
			s1.2,2,1.9,2.9c0.7,0.9,1.3,1.7,1.7,2.2c0.4,0.5,1.1,1.3,2,2.2c0.9,1,1.5,1.6,1.7,1.9c0,0,0.2,0.2,0.3,0.3
			c0.1,0.2,0.3,0.3,0.3,0.4c0.1,0.1,0.2,0.2,0.3,0.4c0.1,0.2,0.2,0.3,0.3,0.4c0,0.1,0.1,0.2,0.2,0.4c0.1,0.1,0.1,0.3,0.2,0.5
			c0,0.1,0,0.3,0,0.5c0,0.2,0,0.3-0.1,0.5c-0.1,0.7-0.5,1.3-1,1.7c-0.5,0.4-1.1,0.6-1.7,0.5c-2.5-0.4-4.7-0.8-6.5-1.2
			c-7.8-2-14.7-5.2-21-9.7c-4.5,0.8-9,1.2-13.3,1.2c-13.6,0-25.5-3.3-35.6-10c2.9,0.2,5.1,0.3,6.6,0.3c8.1,0,15.9-1.1,23.3-3.4
			c7.4-2.3,14.1-5.5,19.9-9.7c6.3-4.6,11.1-10,14.5-16c3.4-6,5.1-12.4,5.1-19.2c0-3.9-0.6-7.7-1.7-11.5c6.5,3.6,11.6,8.1,15.4,13.4
			C165.8,90.5,167.6,96.2,167.6,102.4z"/>
	</g>
	<rect x="70.3" y="61.5" class="st4" width="27.5" height="38.5"/>
	<text transform="matrix(1 0 0 1 70.25 96.8276)" class="st5 st6 st7">2</text>
	<g class="st1">
		<g id="XMLID_4_">
			<g>
				<path class="st9" d="M141.5,149.5v3.5c0,0.2-0.1,0.4-0.2,0.5c-0.1,0.1-0.3,0.2-0.5,0.2h-9.9c-0.2,0-0.4-0.1-0.5-0.2
					c-0.1-0.1-0.2-0.3-0.2-0.5v-3.5c0-0.2,0.1-0.4,0.2-0.5c0.1-0.1,0.3-0.2,0.5-0.2h2.1v-7.1h-2.1c-0.2,0-0.4-0.1-0.5-0.2
					c-0.1-0.1-0.2-0.3-0.2-0.5v-3.5c0-0.2,0.1-0.4,0.2-0.5c0.1-0.1,0.3-0.2,0.5-0.2h7.1c0.2,0,0.4,0.1,0.5,0.2
					c0.1,0.1,0.2,0.3,0.2,0.5v11.3h2.1c0.2,0,0.4,0.1,0.5,0.2C141.4,149.1,141.5,149.3,141.5,149.5z"/>
				<path class="st9" d="M138.6,129.8v3.5c0,0.2-0.1,0.4-0.2,0.5c-0.1,0.1-0.3,0.2-0.5,0.2h-4.2c-0.2,0-0.4-0.1-0.5-0.2
					c-0.1-0.1-0.2-0.3-0.2-0.5v-3.5c0-0.2,0.1-0.4,0.2-0.5c0.1-0.1,0.3-0.2,0.5-0.2h4.2c0.2,0,0.4,0.1,0.5,0.2
					C138.6,129.4,138.6,129.6,138.6,129.8z"/>
				<path class="st8" d="M133.7,134h4.2c0.2,0,0.4-0.1,0.5-0.2c0.1-0.1,0.2-0.3,0.2-0.5v-3.5c0-0.2-0.1-0.4-0.2-0.5
					c-0.1-0.1-0.3-0.2-0.5-0.2h-4.2c-0.2,0-0.4,0.1-0.5,0.2c-0.1,0.1-0.2,0.3-0.2,0.5v3.5c0,0.2,0.1,0.4,0.2,0.5
					C133.3,133.9,133.5,134,133.7,134z M137.9,136.8h-7.1c-0.2,0-0.4,0.1-0.5,0.2c-0.1,0.1-0.2,0.3-0.2,0.5v3.5
					c0,0.2,0.1,0.4,0.2,0.5c0.1,0.1,0.3,0.2,0.5,0.2h2.1v7.1h-2.1c-0.2,0-0.4,0.1-0.5,0.2c-0.1,0.1-0.2,0.3-0.2,0.5v3.5
					c0,0.2,0.1,0.4,0.2,0.5c0.1,0.1,0.3,0.2,0.5,0.2h9.9c0.2,0,0.4-0.1,0.5-0.2c0.1-0.1,0.2-0.3,0.2-0.5v-3.5c0-0.2-0.1-0.4-0.2-0.5
					c-0.1-0.1-0.3-0.2-0.5-0.2h-2.1v-11.3c0-0.2-0.1-0.4-0.2-0.5C138.3,136.9,138.1,136.8,137.9,136.8z M150.5,134
					c1.5,2.6,2.3,5.4,2.3,8.5c0,3.1-0.8,5.9-2.3,8.5c-1.5,2.6-3.6,4.7-6.2,6.2c-2.6,1.5-5.4,2.3-8.5,2.3c-3.1,0-5.9-0.8-8.5-2.3
					c-2.6-1.5-4.7-3.6-6.2-6.2c-1.5-2.6-2.3-5.4-2.3-8.5c0-3.1,0.8-5.9,2.3-8.5c1.5-2.6,3.6-4.7,6.2-6.2c2.6-1.5,5.4-2.3,8.5-2.3
					c3.1,0,5.9,0.8,8.5,2.3C146.9,129.3,149,131.4,150.5,134z"/>
			</g>
		</g>
	</g>
</g>
<g id="Ebene_1_Kopie_Kopie" class="st0">
	<g class="st1">
		<g id="XMLID_2_">
			<g>
				<path class="st2" d="M191.2,50.3V120c0,1.6-0.6,3-1.7,4.1c-1.1,1.1-2.5,1.7-4.1,1.7h-81.3c-1.6,0-3-0.6-4.1-1.7
					c-1.1-1.1-1.7-2.5-1.7-4.1V23.2c0-1.6,0.6-3,1.7-4.1c1.1-1.1,2.5-1.7,4.1-1.7h54.2c1.6,0,3.4,0.4,5.3,1.2
					c1.9,0.8,3.5,1.8,4.6,2.9l18.9,18.9c1.1,1.1,2.1,2.7,2.9,4.6C190.8,46.9,191.2,48.7,191.2,50.3z M183.4,118V56.1h-25.1
					c-1.6,0-3-0.6-4.1-1.7c-1.1-1.1-1.7-2.5-1.7-4.1V25.2H106V118H183.4z M160.2,48.4H183c-0.4-1.2-0.9-2-1.3-2.5L162.7,27
					c-0.5-0.5-1.3-0.9-2.5-1.3V48.4z"/>
			</g>
			<g>
				<path class="st11" d="M121,74h-5c-1.9,0-3.5-1.6-3.5-3.5v-5c0-1.9,1.6-3.5,3.5-3.5h5c1.9,0,3.5,1.6,3.5,3.5v5
					C124.5,72.4,123,74,121,74z"/>
				<path class="st12" d="M121,90.5h-5c-1.9,0-3.5-1.6-3.5-3.5v-5c0-1.9,1.6-3.5,3.5-3.5h5c1.9,0,3.5,1.6,3.5,3.5v5
					C124.5,88.9,123,90.5,121,90.5z"/>
				<path class="st12" d="M121,108.7h-5c-1.9,0-3.5-1.6-3.5-3.5v-5c0-1.9,1.6-3.5,3.5-3.5h5c1.9,0,3.5,1.6,3.5,3.5v5
					C124.5,107.1,123,108.7,121,108.7z"/>
			</g>
		</g>
	</g>
	<g class="st1">
		<path class="st2" d="M129.7,61.1c0,0.3-0.1,0.6-0.3,0.8l-9,9l-1.7,1.7c-0.2,0.2-0.5,0.3-0.8,0.3c-0.3,0-0.6-0.1-0.8-0.3l-1.7-1.7
			l-4.5-4.5c-0.2-0.2-0.3-0.5-0.3-0.8c0-0.3,0.1-0.6,0.3-0.8l1.7-1.7c0.2-0.2,0.5-0.3,0.8-0.3c0.3,0,0.6,0.1,0.8,0.3l3.6,3.6
			l8.1-8.1c0.2-0.2,0.5-0.3,0.8-0.3s0.6,0.1,0.8,0.3l1.7,1.7C129.5,60.5,129.7,60.8,129.7,61.1z"/>
	</g>
	<g class="st1">
		<path class="st2" d="M129.7,78.6c0,0.3-0.1,0.6-0.3,0.8l-9,9l-1.7,1.7c-0.2,0.2-0.5,0.3-0.8,0.3c-0.3,0-0.6-0.1-0.8-0.3l-1.7-1.7
			l-4.5-4.5c-0.2-0.2-0.3-0.5-0.3-0.8c0-0.3,0.1-0.6,0.3-0.8l1.7-1.7c0.2-0.2,0.5-0.3,0.8-0.3c0.3,0,0.6,0.1,0.8,0.3l3.6,3.6
			l8.1-8.1c0.2-0.2,0.5-0.3,0.8-0.3s0.6,0.1,0.8,0.3l1.7,1.7C129.5,78,129.7,78.3,129.7,78.6z"/>
	</g>
	<path class="st13" d="M167.9,71.6h-32.3c-2,0-3.7-1.7-3.7-3.7v0c0-2,1.7-3.7,3.7-3.7h32.3c2,0,3.7,1.7,3.7,3.7v0
		C171.6,70,169.9,71.6,167.9,71.6z"/>
	<path class="st13" d="M167.9,88.1h-32.3c-2,0-3.7-1.7-3.7-3.7v0c0-2,1.7-3.7,3.7-3.7h32.3c2,0,3.7,1.7,3.7,3.7v0
		C171.6,86.5,169.9,88.1,167.9,88.1z"/>
	<path class="st13" d="M167.9,106.4h-32.3c-2,0-3.7-1.7-3.7-3.7v0c0-2,1.7-3.7,3.7-3.7h32.3c2,0,3.7,1.7,3.7,3.7v0
		C171.6,104.7,169.9,106.4,167.9,106.4z"/>
	<circle class="st14" cx="87.5" cy="131.9" r="50.5"/>
	<rect x="73.8" y="109.7" class="st4" width="27.5" height="38.5"/>
	<text transform="matrix(1 0 0 1 73.7979 144.9844)" class="st5 st6 st7">2</text>
	<g class="st1">
		<g id="XMLID_3_">
			<g>
				<path class="st8" d="M138.4,179.8c0.4,0.4,0.6,1,0.6,1.6s-0.2,1.1-0.7,1.6s-1,0.7-1.6,0.7c-0.6,0-1.1-0.2-1.6-0.7l-6-6
					c-2.1,1.4-4.4,2.2-7,2.2c-1.7,0-3.3-0.3-4.8-1c-1.5-0.7-2.8-1.5-3.9-2.6c-1.1-1.1-2-2.4-2.6-3.9c-0.6-1.5-1-3.1-1-4.8
					c0-1.7,0.3-3.3,1-4.8c0.7-1.5,1.5-2.8,2.6-3.9c1.1-1.1,2.4-2,3.9-2.6c1.5-0.7,3.1-1,4.8-1c1.7,0,3.3,0.3,4.8,1
					c1.5,0.6,2.8,1.5,3.9,2.6c1.1,1.1,2,2.4,2.6,3.9c0.7,1.5,1,3.1,1,4.8c0,2.6-0.7,4.9-2.2,7L138.4,179.8z M130.1,166.8
					c0-2.1-0.8-4-2.3-5.5c-1.5-1.5-3.4-2.3-5.5-2.3c-2.1,0-4,0.8-5.5,2.3c-1.5,1.5-2.3,3.4-2.3,5.5c0,2.1,0.8,4,2.3,5.5
					c1.5,1.5,3.4,2.3,5.5,2.3c2.1,0,4-0.8,5.5-2.3C129.4,170.8,130.1,169,130.1,166.8z"/>
				<path class="st9" d="M127.8,161.3c1.5,1.5,2.3,3.4,2.3,5.5c0,2.1-0.8,4-2.3,5.5c-1.5,1.5-3.4,2.3-5.5,2.3c-2.1,0-4-0.8-5.5-2.3
					c-1.5-1.5-2.3-3.4-2.3-5.5c0-2.1,0.8-4,2.3-5.5c1.5-1.5,3.4-2.3,5.5-2.3C124.5,159,126.3,159.8,127.8,161.3z"/>
			</g>
			<g>
				<path class="st15" d="M139.1,181.3c0,0.6-0.2,1.1-0.7,1.6s-1,0.7-1.6,0.7c-0.6,0-1.1-0.2-1.6-0.7l-6-6c-2.1,1.4-4.4,2.2-7,2.2
					c-1.7,0-3.3-0.3-4.8-1c-1.5-0.7-2.8-1.5-3.9-2.6c-1.1-1.1-2-2.4-2.6-3.9c-0.6-1.5-1-3.1-1-4.8c0-1.7,0.3-3.3,1-4.8
					c0.7-1.5,1.5-2.8,2.6-3.9c1.1-1.1,2.4-2,3.9-2.6c1.5-0.7,3.1-1,4.8-1c1.7,0,3.3,0.3,4.8,1c1.5,0.6,2.8,1.5,3.9,2.6
					c1.1,1.1,2,2.4,2.6,3.9c0.7,1.5,1,3.1,1,4.8c0,2.6-0.7,4.9-2.2,7l6,6C138.9,180.2,139.1,180.7,139.1,181.3z"/>
			</g>
		</g>
	</g>
</g>
<g id="Ebene_1_Kopie_Kopie_Kopie">
	<g>
		<path class="st2" d="M194.7,42.6v65.9c0,2.7-0.9,4.9-2.8,6.8s-4.2,2.8-6.8,2.8H152c0,1.5,0.3,3.1,1,4.7c0.6,1.6,1.3,3.1,1.9,4.3
			c0.6,1.2,1,2.1,1,2.6c0,1-0.4,2-1.2,2.7c-0.8,0.8-1.7,1.2-2.7,1.2h-31c-1,0-2-0.4-2.7-1.2c-0.8-0.8-1.2-1.7-1.2-2.7
			c0-0.6,0.3-1.5,1-2.7c0.6-1.2,1.3-2.6,1.9-4.2c0.6-1.6,1-3.2,1-4.7H88.1c-2.7,0-4.9-0.9-6.8-2.8s-2.8-4.2-2.8-6.8V42.6
			c0-2.7,0.9-4.9,2.8-6.8s4.2-2.8,6.8-2.8H185c2.7,0,4.9,0.9,6.8,2.8S194.7,40,194.7,42.6z M186.9,93V42.6c0-0.5-0.2-1-0.6-1.4
			c-0.4-0.4-0.8-0.6-1.4-0.6H88.1c-0.5,0-1,0.2-1.4,0.6c-0.4,0.4-0.6,0.8-0.6,1.4V93c0,0.5,0.2,1,0.6,1.4c0.4,0.4,0.8,0.6,1.4,0.6
			H185c0.5,0,1-0.2,1.4-0.6C186.7,94,186.9,93.5,186.9,93z"/>
	</g>
	<g>
		<path class="st2" d="M120.7,51.3c0,0.4-0.1,0.8-0.4,1.1L108.6,64l-2.2,2.2c-0.3,0.3-0.7,0.4-1.1,0.4c-0.4,0-0.8-0.1-1.1-0.4
			l-2.2-2.2l-5.8-5.8c-0.3-0.3-0.4-0.7-0.4-1.1c0-0.4,0.1-0.8,0.4-1.1l2.2-2.2c0.3-0.3,0.7-0.4,1.1-0.4c0.4,0,0.8,0.2,1.1,0.4
			l4.7,4.7L115.9,48c0.3-0.3,0.7-0.4,1.1-0.4s0.8,0.1,1.1,0.4l2.2,2.2C120.6,50.5,120.7,50.8,120.7,51.3z"/>
	</g>
	<g>
		<path class="st2" d="M120.7,74c0,0.4-0.1,0.8-0.4,1.1l-11.6,11.6l-2.2,2.2c-0.3,0.3-0.7,0.4-1.1,0.4c-0.4,0-0.8-0.1-1.1-0.4
			l-2.2-2.2l-5.8-5.8c-0.3-0.3-0.4-0.7-0.4-1.1c0-0.4,0.1-0.8,0.4-1.1l2.2-2.2c0.3-0.3,0.7-0.4,1.1-0.4c0.4,0,0.8,0.2,1.1,0.4
			l4.7,4.7l10.5-10.5c0.3-0.3,0.7-0.4,1.1-0.4s0.8,0.1,1.1,0.4l2.2,2.2C120.6,73.2,120.7,73.5,120.7,74z"/>
	</g>
	<path class="st2" d="M171.5,64.9h-44c-2,0-3.7-1.7-3.7-3.7V59c0-2,1.7-3.7,3.7-3.7h44c2,0,3.7,1.7,3.7,3.7v2.2
		C175.1,63.2,173.5,64.9,171.5,64.9z"/>
	<path class="st2" d="M171.5,86.3h-44c-2,0-3.7-1.7-3.7-3.7v-2.2c0-2,1.7-3.7,3.7-3.7h44c2,0,3.7,1.7,3.7,3.7v2.2
		C175.1,84.7,173.5,86.3,171.5,86.3z"/>
	<circle class="st16" cx="61.1" cy="104.2" r="58.1"/>
	<g>
		<g id="XMLID_5_">
			<g>
				<path class="st8" d="M123,157.8c0.5,0.5,0.7,1.1,0.7,1.8s-0.2,1.3-0.8,1.8s-1.1,0.8-1.8,0.8c-0.7,0-1.3-0.3-1.8-0.8l-6.9-6.9
					c-2.4,1.7-5.1,2.5-8,2.5c-1.9,0-3.8-0.4-5.5-1.1c-1.7-0.8-3.2-1.8-4.5-3c-1.3-1.3-2.3-2.8-3-4.5c-0.7-1.7-1.1-3.6-1.1-5.5
					c0-1.9,0.4-3.8,1.1-5.5c0.8-1.8,1.8-3.3,3-4.5c1.3-1.3,2.8-2.3,4.5-3c1.8-0.8,3.6-1.1,5.5-1.1c1.9,0,3.8,0.4,5.5,1.1
					c1.8,0.7,3.3,1.7,4.5,3c1.3,1.3,2.3,2.8,3,4.5c0.8,1.7,1.1,3.6,1.1,5.5c0,3-0.8,5.6-2.5,8L123,157.8z M113.4,142.9
					c0-2.5-0.9-4.6-2.6-6.4c-1.8-1.8-3.9-2.6-6.4-2.6c-2.5,0-4.6,0.9-6.4,2.6c-1.8,1.8-2.6,3.9-2.6,6.4c0,2.5,0.9,4.6,2.6,6.4
					c1.8,1.8,3.9,2.6,6.4,2.6c2.5,0,4.6-0.9,6.4-2.6C112.6,147.5,113.4,145.4,113.4,142.9z"/>
				<path class="st9" d="M110.8,136.6c1.8,1.8,2.6,3.9,2.6,6.4c0,2.5-0.9,4.6-2.6,6.4c-1.8,1.8-3.9,2.6-6.4,2.6
					c-2.5,0-4.6-0.9-6.4-2.6c-1.8-1.8-2.6-3.9-2.6-6.4c0-2.5,0.9-4.6,2.6-6.4c1.8-1.8,3.9-2.6,6.4-2.6
					C106.9,133.9,109,134.8,110.8,136.6z"/>
			</g>
			<g>
				<path class="st15" d="M123.7,159.6c0,0.7-0.2,1.3-0.8,1.8s-1.1,0.8-1.8,0.8c-0.7,0-1.3-0.3-1.8-0.8l-6.9-6.9
					c-2.4,1.7-5.1,2.5-8,2.5c-1.9,0-3.8-0.4-5.5-1.1c-1.7-0.8-3.2-1.8-4.5-3c-1.3-1.3-2.3-2.8-3-4.5c-0.7-1.7-1.1-3.6-1.1-5.5
					c0-1.9,0.4-3.8,1.1-5.5c0.8-1.8,1.8-3.3,3-4.5c1.3-1.3,2.8-2.3,4.5-3c1.8-0.8,3.6-1.1,5.5-1.1c1.9,0,3.8,0.4,5.5,1.1
					c1.8,0.7,3.3,1.7,4.5,3c1.3,1.3,2.3,2.8,3,4.5c0.8,1.7,1.1,3.6,1.1,5.5c0,3-0.8,5.6-2.5,8l6.9,6.9
					C123.5,158.3,123.7,158.9,123.7,159.6z"/>
			</g>
		</g>
	</g>
</g>
</svg>
